<?xml version="1.0" standalone="no"?>
<!DOCTYPE svg PUBLIC "-//W3C//DTD SVG 20010904//EN"
 "http://www.w3.org/TR/2001/REC-SVG-20010904/DTD/svg10.dtd">
<svg version="1.0" xmlns="http://www.w3.org/2000/svg"
 width="504.000000pt" height="118.000000pt" viewBox="0 0 504.000000 118.000000"
 preserveAspectRatio="xMidYMid meet">

<g transform="translate(0.000000,118.000000) scale(0.100000,-0.100000)"
fill="#000000" stroke="none">
<path d="M703 990 c-69 -14 -191 -70 -152 -70 7 0 39 -15 69 -33 44 -27 61
-32 87 -26 51 10 77 -9 81 -59 2 -25 -1 -42 -7 -42 -6 0 -11 5 -11 10 0 6 -4
10 -10 10 -5 0 -10 -8 -10 -18 0 -10 -2 -21 -5 -23 -2 -3 -33 23 -68 56 -35
34 -74 68 -88 75 -21 10 -20 8 5 -12 61 -51 -6 -63 -88 -15 -126 73 -274 97
-337 54 -38 -26 -48 -55 -38 -112 9 -47 49 -158 55 -152 2 2 -3 20 -11 40 -21
51 -20 52 30 64 66 15 73 -4 30 -83 -18 -34 -29 -67 -26 -72 4 -6 21 18 40 53
29 57 32 68 22 96 -29 83 -3 121 78 117 49 -3 62 -10 41 -23 -18 -11 -11 -23
17 -30 l28 -7 -30 -21 c-16 -12 -41 -33 -55 -47 -14 -14 -21 -22 -16 -17 22
16 35 7 27 -20 -12 -43 -3 -58 23 -36 11 10 7 2 -11 -17 -72 -79 -142 -231
-144 -314 0 -17 -3 -25 -6 -17 -3 7 -14 22 -25 33 -18 18 -18 18 -12 -9 9 -40
29 -68 70 -100 51 -38 122 -37 222 2 62 25 91 45 64 45 -5 0 -33 15 -63 33
-48 28 -58 31 -91 23 -48 -12 -78 11 -78 61 0 37 6 40 30 18 15 -14 16 -12 12
18 -5 32 -4 31 60 -34 63 -64 134 -118 98 -74 -14 17 -13 18 25 12 22 -3 51
-9 65 -13 24 -6 25 -6 5 10 -15 12 -7 11 30 -5 28 -11 82 -29 120 -39 39 -11
61 -19 51 -19 -18 -1 -18 -2 -2 -20 17 -18 17 -20 -1 -24 -10 -3 2 -3 27 -1
143 13 174 167 72 369 -24 48 -24 50 -8 102 24 76 30 145 17 186 -31 92 -109
136 -208 117z m-119 -239 c57 -39 136 -117 136 -133 0 -21 -95 -143 -134 -173
l-36 -27 -47 30 c-27 17 -68 52 -93 77 l-44 45 19 36 c18 33 141 174 152 174
2 0 24 -13 47 -29z m229 -242 c-8 -8 -7 -18 3 -37 15 -29 18 -80 6 -98 -13
-21 -47 -31 -84 -27 -21 3 -38 8 -38 11 0 3 16 24 35 48 36 43 44 61 23 48 -7
-4 -8 -3 -4 5 4 6 11 9 16 6 5 -3 16 11 26 30 9 20 19 33 22 30 3 -3 1 -10 -5
-16z"/>
<path d="M2380 650 l0 -350 95 0 c94 0 95 0 95 25 l0 24 36 -24 c43 -29 89
-39 151 -32 182 20 259 313 122 462 -77 84 -191 99 -269 36 l-40 -32 0 121 0
120 -95 0 -95 0 0 -350z m363 -10 c22 -25 27 -40 27 -81 0 -45 -4 -55 -34 -85
-60 -60 -142 -37 -167 47 -37 121 92 209 174 119z"/>
<path d="M1470 735 l0 -236 -25 -24 c-36 -37 -79 -31 -133 18 l-22 21 -55 -54
c-30 -30 -55 -60 -55 -66 0 -7 18 -26 39 -43 112 -89 301 -80 384 18 49 58 57
111 57 368 l0 233 -95 0 -95 0 0 -235z"/>
<path d="M3155 949 c-49 -11 -109 -59 -132 -102 -23 -46 -22 -130 3 -164 36
-48 67 -63 199 -95 148 -36 185 -60 185 -120 0 -72 -58 -112 -165 -112 -105 0
-158 36 -174 117 -6 30 -10 32 -46 32 l-40 0 2 -38 c5 -78 67 -149 157 -177
104 -33 281 13 325 83 43 70 36 163 -17 219 -28 30 -73 47 -205 78 -98 22
-142 41 -151 65 -14 36 -5 75 23 107 24 28 36 32 90 36 106 8 159 -24 185
-110 8 -27 86 -26 86 1 0 63 -50 132 -117 163 -50 22 -152 31 -208 17z"/>
<path d="M1913 809 c-60 -23 -120 -78 -148 -134 -15 -30 -20 -61 -20 -120 0
-69 4 -86 27 -127 58 -98 149 -144 272 -136 110 7 189 58 239 152 30 58 31
174 0 231 -68 130 -230 188 -370 134z m168 -149 c27 -15 49 -63 49 -109 0 -31
-7 -49 -29 -73 -25 -28 -36 -33 -76 -33 -40 0 -51 5 -76 33 -24 27 -29 41 -29
83 0 43 5 55 29 80 23 23 38 29 71 29 23 0 50 -5 61 -10z"/>
<path d="M4217 770 c-16 -5 -44 -20 -63 -35 l-34 -26 0 31 c0 30 -2 31 -37 28
l-38 -3 -3 -232 -2 -233 45 0 45 0 0 165 0 165 28 30 c47 54 139 60 170 12 14
-21 18 -57 20 -199 l4 -173 40 0 40 0 -4 188 c-3 201 -9 228 -58 264 -29 21
-112 31 -153 18z"/>
<path d="M4633 759 c-178 -88 -157 -419 29 -470 88 -23 191 19 227 94 31 64
28 77 -17 77 -34 0 -39 -3 -51 -36 -14 -39 -62 -74 -101 -74 -37 0 -72 21 -97
59 -19 28 -23 47 -23 110 1 134 51 200 144 188 45 -6 86 -43 86 -78 0 -16 7
-19 40 -19 44 0 47 6 29 61 -16 46 -37 68 -84 90 -54 25 -130 24 -182 -2z"/>
<path d="M3550 764 c0 -4 39 -114 86 -245 l85 -237 -23 -49 c-22 -45 -26 -48
-65 -51 -41 -3 -43 -4 -43 -36 0 -27 5 -35 24 -40 35 -9 81 3 106 26 12 12 35
50 52 87 33 73 198 525 198 542 0 6 -17 9 -42 7 l-42 -3 -62 -190 -61 -190
-64 193 -64 192 -42 0 c-24 0 -43 -3 -43 -6z"/>
</g>
</svg>
